<svg id="Layer_3" data-name="Layer 3" xmlns="http://www.w3.org/2000/svg" viewBox="0 0 311.75 61.13"><defs><style>.cls-1{fill:#fff;}</style></defs><title>mantis-logo</title><path class="cls-1" d="M53.88,82.4V44.64" transform="translate(-16.53 -21.27)"/><polygon class="cls-1" points="25.49 31.24 19.49 29.74 13.99 18.24 19.74 14.24 25.49 14.24 19.74 10.5 15.24 13.49 17.24 8 27.49 0 13.99 6.25 10.5 19.99 13.74 28.99 8.5 27.24 3 19.74 0 10.5 0 21.74 4.5 29.74 10.75 34.24 26.24 36.74 25.49 31.24"/><path class="cls-1" d="M53.88,44.64s-6.75.25-10,3.75-4.25,19,2.25,29c0,0,6.78,10.78,15.49,0,6.5-10,5.5-25.49,2.25-29s-10-3.75-10-3.75" transform="translate(-16.53 -21.27)"/><path class="cls-1" d="M53.88,82.4V44.64" transform="translate(-16.53 -21.27)"/><path class="cls-1" d="M53.88,82.4V44.64" transform="translate(-16.53 -21.27)"/><polygon class="cls-1" points="49.2 31.24 55.2 29.74 60.7 18.24 54.95 14.24 49.2 14.24 54.95 10.5 59.45 13.49 57.45 8 47.2 0 60.7 6.25 64.2 19.99 60.95 28.99 66.2 27.24 71.69 19.74 74.69 10.5 74.69 21.74 70.19 29.74 63.95 34.24 48.45 36.74 49.2 31.24"/><path class="cls-1" d="M53.88,82.4V44.64" transform="translate(-16.53 -21.27)"/><path class="cls-1" d="M122.17,64.92H127v4h-4.8v7.37h-4.33V68.9h-20l24.33-31.65Zm-4.33,0V49.83L105.5,64.92Z" transform="translate(-16.53 -21.27)"/><path class="cls-1" d="M133.58,76.27l6.29-39L155,66.39l15.1-29.14,6.29,39H172l-3.89-24.92L155,76.27,141.69,51.35,138,76.27Z" transform="translate(-16.53 -21.27)"/><path class="cls-1" d="M207,65.78H190.33l-4.68,10.49h-4.8l18-39,17.5,39h-4.8Zm-1.7-3.91L198.7,47,192,61.87Z" transform="translate(-16.53 -21.27)"/><path class="cls-1" d="M221.81,76.27v-39l30.42,28.49V37.25h4.33v39L226.14,47.78V76.27Z" transform="translate(-16.53 -21.27)"/><path class="cls-1" d="M276.22,41.35V76.27h-4.33V41.35h-9.48v-4.1h23.28v4.1Z" transform="translate(-16.53 -21.27)"/><path class="cls-1" d="M295.87,37.25v39h-4.33v-39Z" transform="translate(-16.53 -21.27)"/><path class="cls-1" d="M323.37,45.34a9.3,9.3,0,0,0-2.28-2.83,7.23,7.23,0,0,0-4.39-1.3c-3.86,0-6.55,2.32-6.55,5.83a3.91,3.91,0,0,0,1.46,3.28,12.75,12.75,0,0,0,4.1,2.37l3.74,1.58a19,19,0,0,1,6,3.57,8.93,8.93,0,0,1,2.8,6.84c0,7-5.32,11.59-12.34,11.59a11.89,11.89,0,0,1-8.48-3,13.57,13.57,0,0,1-3.63-6.67L308,65.41a8.78,8.78,0,0,0,2.34,4.81A7.61,7.61,0,0,0,316,72.31c5.32,0,7.84-3.67,7.84-7.46a5.54,5.54,0,0,0-1.93-4.41,17.23,17.23,0,0,0-4.68-2.6l-3.51-1.59a17.38,17.38,0,0,1-5.21-3.11A7.69,7.69,0,0,1,305.82,47c0-5.83,4.62-9.73,10.94-9.73A10.8,10.8,0,0,1,323,39a11.55,11.55,0,0,1,3.8,4.18Z" transform="translate(-16.53 -21.27)"/></svg>